<svg width="241" height="68" viewBox="0 0 241 68" fill="none" xmlns="http://www.w3.org/2000/svg">
<g clip-path="url(#clip0_1_18)">
<path d="M123.797 38.6481C123.797 30.164 128.643 22.6626 137.712 22.6626C143.301 22.6626 146.781 25.5475 146.781 30.6834C146.781 39.5699 136.915 40.9551 130.699 41.0136C130.983 44.5912 132.981 48.1687 137.828 48.1687C141.192 48.1687 143.646 46.6104 145.015 45.63L147.126 50.1879C146.212 50.9951 142.448 53.4192 137.088 53.4192C127.675 53.4216 123.797 47.3054 123.797 38.6481ZM140.734 30.9736C140.734 28.8373 139.365 27.5692 137.312 27.5692C132.75 27.5692 130.641 31.8393 130.47 36.0534C133.55 36.1094 140.734 35.4169 140.734 30.9736Z" fill="white"/>
<path d="M152.201 43.6694V12.447H158.988V23.5259H166.688V28.8349H158.988V43.5499C158.988 47.1274 160.528 48.1663 162.865 48.1663C164.405 48.1663 165.659 47.5322 166.572 46.9543L168.283 51.3975C166.572 52.6096 163.721 53.4168 161.041 53.4168C152.941 53.4216 152.201 48.7467 152.201 43.6694Z" fill="white"/>
<path d="M171.534 15.1613C171.534 13.0835 173.074 11.3521 175.412 11.3521C177.75 11.3521 179.347 13.025 179.347 15.1613C179.347 17.3536 177.694 19.0266 175.412 19.0266C173.074 19.0266 171.534 17.4122 171.534 15.1613ZM178.834 23.5284V52.5559H172.048V23.5284H178.834Z" fill="white"/>
<path d="M184.539 39.1676C184.539 29.2983 189.385 22.6626 198.341 22.6626C200.165 22.6626 201.478 22.9504 202.789 23.3552V12.447H209.518V46.8421L210.032 52.5559H204.214L203.758 49.4393L203.529 49.3807C201.76 52.034 198.909 53.4192 195.772 53.4192C186.876 53.4216 184.539 46.3812 184.539 39.1676ZM202.787 43.5523V28.6057C201.818 28.0862 200.334 27.6814 198.509 27.6814C193.149 27.6814 191.267 32.7027 191.267 38.5311C191.267 43.7815 192.523 48.3419 197.14 48.3419C200.62 48.3419 202.787 45.8032 202.787 43.5523Z" fill="white"/>
<path d="M215.507 39.2822C215.507 29.1251 220.469 22.6626 230.278 22.6626C232.216 22.6626 236.38 23.1235 240.429 24.6818V47.0152L241 52.5559H235.127L234.727 49.4978L234.498 49.4392C232.958 51.6901 230.449 53.4216 226.627 53.4216C218.016 53.4216 215.507 46.8421 215.507 39.2822ZM233.758 43.3791V28.4325C232.902 28.0277 231.191 27.6253 229.422 27.6253C224.005 27.6253 222.18 32.8197 222.18 39.0505C222.18 43.784 223.378 48.3418 228.111 48.3418C231.762 48.3418 233.758 45.8617 233.758 43.3791Z" fill="white"/>
<path d="M111.234 14.9563H111V53.0654H118.338V22.1455C118.338 18.1753 115.157 14.9563 111.234 14.9563Z" fill="white"/>
<path d="M97.8725 18.9314H97.6387V53.0655H104.977V26.1182C104.975 22.148 101.796 18.9314 97.8725 18.9314Z" fill="white"/>
<path d="M91.5005 22.9041H84.162V53.0656H91.5005V22.9041Z" fill="white"/>
<path d="M52.1741 0H15.0263C6.72872 0 0 6.80878 0 15.2051V52.7949C0 61.1937 6.72872 68 15.0263 68H52.1741C60.4741 68 67.2004 61.1912 67.2004 52.7949V15.2051C67.2004 6.80878 60.4741 0 52.1741 0ZM23.8518 53.0534H16.5133V22.8943H23.8518V53.0534ZM37.3261 53.0534H29.9876V18.9192H30.2214C34.1449 18.9192 37.3261 22.1383 37.3261 26.1084V53.0534ZM50.6871 53.0534H43.3487V14.9466H43.5824C47.5059 14.9466 50.6871 18.1657 50.6871 22.1358V53.0534Z" fill="url(#paint0_linear_1_18)"/>
<path d="M23.8518 22.8943H16.5133V53.0558H23.8518V22.8943Z" fill="white"/>
<path d="M37.3261 53.0533H29.9876V18.9192H30.2214C34.1449 18.9192 37.3261 22.1382 37.3261 26.1084V53.0533Z" fill="white"/>
<path d="M50.6871 53.0535H43.3487V14.9468H43.5825C47.5059 14.9468 50.6871 18.1658 50.6871 22.136V53.0535Z" fill="white"/>
</g>
<defs>
<linearGradient id="paint0_linear_1_18" x1="4.40117" y1="63.5468" x2="63.4903" y2="5.15243" gradientUnits="userSpaceOnUse">
<stop stop-color="#1EE2C6"/>
<stop offset="0.5048" stop-color="#75A0E3"/>
<stop offset="1" stop-color="#CA5FFF"/>
</linearGradient>
<clipPath id="clip0_1_18">
<rect width="241" height="68" fill="white"/>
</clipPath>
</defs>
</svg>
